<svg preserveAspectRatio="none" width="100%" height="100%" overflow="visible" style="display: block;" viewBox="0 0 40 40" fill="none" xmlns="http://www.w3.org/2000/svg">
<path id="Vector" d="M21.6455 16.0276C22.7285 10.6723 22.1803 2.17931 19.9952 0C17.814 2.18123 17.2677 10.6838 18.3564 16.0372C15.3414 11.4831 8.94149 5.85749 5.85174 5.85941C5.85366 8.94341 11.4696 15.3376 16.0238 18.3545C10.6685 17.2696 2.17931 17.8178 0 20.0029C2.17931 22.1841 10.6493 22.738 16.0027 21.657C11.4543 24.6797 5.85366 31.0604 5.85749 34.1425C8.94724 34.1463 15.3414 28.5246 18.3564 23.9686C17.2677 29.322 17.814 37.8169 19.9952 40C22.1783 37.8188 22.7323 29.3373 21.6493 23.9839C24.6701 28.5361 31.0566 34.1425 34.1368 34.1444C34.1387 31.0585 28.5284 24.6701 23.9762 21.6493C29.3296 22.7361 37.8169 22.1879 40 20.0029C37.8188 17.8178 29.3373 17.2677 23.9839 18.3526C28.5342 15.3337 34.1444 8.94724 34.1425 5.85941C31.0547 5.85749 24.6624 11.4716 21.6455 16.0276Z" fill="var(--fill-0, #C32D09)"/>
</svg>
